<svg width="94" height="83" viewBox="0 0 94 83" fill="none" xmlns="http://www.w3.org/2000/svg">
<path d="M-2.50153 40.5957L37.2729 0L53.4643 21.8231L59.6827 12.2022L90.1882 36.2546C82.7965 30.6228 66.1123 21.4712 58.5094 29.9188C50.9065 38.3665 41.7276 22.8661 38.0942 19.5939C34.4609 16.3217 29.5058 14.8773 21.4335 20.8845C13.3613 26.8917 2.11341 36.5283 -2.50153 40.5957Z" fill="white"/>
<path d="M90.1881 49.7698C63.2027 32.8149 16.5027 43.1874 -3.47406 50.493H23.4083C35.2011 45.3105 65.0669 37.9104 90.1881 49.7698Z" fill="white"/>
<path d="M31.3047 67.8652C31.3047 67.9513 31.2688 68.0422 31.197 68.1379C31.1252 68.2336 31.0367 68.3222 30.9314 68.4035C30.831 68.4848 30.7257 68.5518 30.6156 68.6045C30.5056 68.6571 30.4123 68.6834 30.3357 68.6834C30.063 68.6834 29.6371 68.5829 29.0582 68.382C28.7711 68.2815 28.4816 68.1738 28.1897 68.059C27.9026 67.9442 27.6131 67.8245 27.3213 67.7001C27.0294 67.5709 26.7614 67.4489 26.5174 67.3341C26.2734 67.2193 26.0509 67.1116 25.8499 67.0111C25.2614 66.7145 24.4575 66.4944 23.4384 66.3508C23.3475 66.4082 23.2733 66.4848 23.2159 66.5805C23.1585 66.6762 23.113 66.7886 23.0795 66.9178C23.0508 67.047 23.0293 67.1905 23.0149 67.3484C23.0053 67.5016 23.0006 67.6642 23.0006 67.8365C23.0006 68.0614 23.0197 68.2576 23.058 68.425C23.0963 68.5925 23.1561 68.7624 23.2374 68.9346C23.4049 69.2839 23.4886 69.5255 23.4886 69.6595C23.4886 69.8126 23.4001 69.9394 23.2231 70.0399C23.0508 70.1404 22.8594 70.2194 22.6489 70.2768C22.2661 70.0615 22.0149 69.7528 21.8953 69.3509C21.7709 68.9394 21.7087 68.4777 21.7087 67.9657C21.7087 67.4872 21.7158 67.0087 21.7302 66.5302C21.7493 66.0518 21.7661 65.6163 21.7804 65.224C21.7948 64.8316 21.8115 64.3986 21.8307 63.9249C21.8546 63.4464 21.8761 62.8914 21.8953 62.2598C21.9 62.1449 21.9048 62.0038 21.9096 61.8363C21.9144 61.6688 21.9216 61.4751 21.9311 61.2549C21.9407 61.0301 21.9479 60.8363 21.9527 60.6736C21.9575 60.5109 21.9599 60.3745 21.9599 60.2645C21.9599 60.2406 21.9575 60.2071 21.9527 60.164C21.9479 60.1162 21.9407 60.0659 21.9311 60.0133C21.9264 59.9606 21.9216 59.9128 21.9168 59.8697C21.912 59.8219 21.9096 59.786 21.9096 59.7621C21.9096 59.5946 21.9742 59.4487 22.1034 59.3243C22.2374 59.1951 22.3833 59.1305 22.5412 59.1305C22.6752 59.1305 22.8307 59.1759 23.0077 59.2668C23.1896 59.353 23.2805 59.4606 23.2805 59.5898C23.2805 59.652 23.2709 59.731 23.2518 59.8267C23.2374 59.9176 23.2231 59.9989 23.2087 60.0707C23.1848 60.2477 23.1656 60.432 23.1513 60.6233C23.1369 60.8147 23.125 61.0181 23.1154 61.2334C23.0915 61.7358 23.0699 62.2717 23.0508 62.8411C23.0317 63.4057 23.0149 64.0158 23.0006 64.6713C23.0006 64.7909 23.0125 64.8675 23.0364 64.901C23.0604 64.9345 23.113 64.9512 23.1943 64.9512C23.3187 64.9512 23.4623 64.901 23.625 64.8005C23.7877 64.7 23.9527 64.5996 24.1202 64.4991C24.9576 63.9919 25.7758 63.2813 26.5748 62.3674C26.8332 62.0612 27.0533 61.7956 27.2351 61.5707C27.4218 61.3411 27.6012 61.1234 27.7734 60.9176C27.8596 60.8123 27.9529 60.7047 28.0534 60.5946C28.1538 60.4798 28.2567 60.3698 28.362 60.2645C28.4672 60.1544 28.5701 60.0516 28.6706 59.9559C28.7711 59.8554 28.8644 59.7669 28.9505 59.6903C28.9792 59.6664 29.0175 59.6329 29.0653 59.5898C29.1132 59.5468 29.1634 59.5061 29.2161 59.4678C29.2735 59.4247 29.3261 59.3889 29.374 59.3601C29.4266 59.3267 29.4721 59.3099 29.5103 59.3099C29.5582 59.3099 29.6156 59.3362 29.6826 59.3889C29.7496 59.4415 29.8118 59.5037 29.8692 59.5755C29.9314 59.6472 29.9816 59.7238 30.0199 59.8051C30.063 59.8817 30.0845 59.9463 30.0845 59.9989C30.0845 60.0563 30.0534 60.1473 29.9912 60.2717L29.862 60.53C29.8237 60.6018 29.7974 60.664 29.7831 60.7167C29.7687 60.7693 29.752 60.8147 29.7328 60.853C29.7137 60.8913 29.6874 60.9296 29.6539 60.9679C29.6204 61.0014 29.5678 61.0348 29.496 61.0683C29.4529 61.097 29.3979 61.1234 29.3309 61.1473C29.2639 61.1712 29.1969 61.1975 29.1299 61.2262C29.063 61.2549 29.0008 61.286 28.9433 61.3195C28.8907 61.353 28.8548 61.3937 28.8357 61.4416C28.673 61.6999 28.5342 61.9153 28.4194 62.0875C28.3046 62.255 28.2136 62.3818 28.1467 62.4679C27.85 62.8411 27.5127 63.2024 27.1347 63.5517C26.9528 63.7239 26.771 63.8866 26.5892 64.0397C26.4122 64.1881 26.2399 64.3268 26.0724 64.456C25.905 64.5804 25.7136 64.724 25.4982 64.8866C25.2829 65.0445 25.0389 65.2192 24.7662 65.4106C25.3116 65.669 25.9169 65.9345 26.582 66.2073C27.2471 66.4752 27.9553 66.7527 28.7065 67.0398C28.7543 67.0542 28.8117 67.0757 28.8787 67.1044C28.9457 67.1283 29.0127 67.1547 29.0797 67.1834C29.1467 67.2121 29.2113 67.2408 29.2735 67.2695C29.3405 67.2934 29.3955 67.3126 29.4386 67.3269C29.5343 67.3508 29.6324 67.3724 29.7328 67.3915C29.8381 67.4106 29.9505 67.4202 30.0702 67.4202C30.1276 67.4202 30.1994 67.4178 30.2855 67.413C30.3716 67.4035 30.4625 67.3915 30.5582 67.3772C30.6587 67.3628 30.7592 67.3484 30.8597 67.3341C30.9649 67.3197 31.0654 67.3054 31.1611 67.291C31.2568 67.4441 31.3047 67.6355 31.3047 67.8652ZM36.3216 63.1713C36.3216 63.1186 36.3072 63.0708 36.2785 63.0277C36.2498 62.9847 36.2139 62.9488 36.1708 62.9201C36.1326 62.8914 36.0895 62.8698 36.0416 62.8555C35.9986 62.8363 35.9603 62.8268 35.9268 62.8268C35.7163 62.8268 35.501 62.9033 35.2809 63.0564C35.0608 63.2048 34.855 63.4129 34.6636 63.6809C34.4722 63.9488 34.3047 64.267 34.1612 64.6354C34.0177 65.0039 33.9196 65.4034 33.8669 65.834C33.9339 65.791 34.0224 65.7288 34.1325 65.6474C34.2425 65.5661 34.3598 65.4776 34.4842 65.3819C34.6134 65.2814 34.7402 65.1809 34.8646 65.0804C34.9938 64.9799 35.1086 64.8866 35.2091 64.8005C35.4292 64.6139 35.611 64.4488 35.7546 64.3053C35.8981 64.157 36.0105 64.023 36.0919 63.9034C36.178 63.779 36.2378 63.6593 36.2713 63.5445C36.3048 63.4249 36.3216 63.3005 36.3216 63.1713ZM39.6518 66.236C39.6518 66.4034 39.5896 66.5853 39.4652 66.7814C39.3408 66.9776 39.1638 67.1977 38.9341 67.4417C38.6709 67.7193 38.3814 67.9777 38.0656 68.2169C37.7498 68.4514 37.4245 68.6571 37.0895 68.8341C36.7546 69.0064 36.4149 69.1428 36.0704 69.2432C35.7258 69.3437 35.3933 69.394 35.0727 69.394C34.3215 69.394 33.7401 69.1523 33.3286 68.6691C32.9171 68.1858 32.7114 67.4776 32.7114 66.5446C32.7114 66.2479 32.7377 65.9465 32.7903 65.6403C32.843 65.3292 32.9195 65.023 33.02 64.7216C33.1253 64.4201 33.2545 64.1282 33.4076 63.8459C33.5655 63.5636 33.7473 63.3005 33.9531 63.0564C34.0823 62.9081 34.2258 62.7574 34.3837 62.6043C34.5416 62.4512 34.7162 62.3148 34.9076 62.1952C35.099 62.0708 35.3072 61.9703 35.5321 61.8937C35.7617 61.8172 36.0105 61.7789 36.2785 61.7789C36.4699 61.7789 36.6421 61.8172 36.7953 61.8937C36.9484 61.9655 37.0776 62.0588 37.1828 62.1736C37.2881 62.2885 37.367 62.4177 37.4197 62.5612C37.4771 62.7048 37.5058 62.8459 37.5058 62.9847C37.5058 63.2765 37.4269 63.5732 37.269 63.8746C37.1111 64.1713 36.8886 64.4728 36.6015 64.779C36.3144 65.0804 35.9699 65.3843 35.5679 65.6905C35.166 65.9919 34.7186 66.2934 34.2258 66.5948C34.1588 66.6331 34.0918 66.6762 34.0248 66.724C33.9578 66.7671 33.9244 66.8221 33.9244 66.8891C33.9244 67.0326 33.9435 67.1834 33.9818 67.3413C34.0201 67.4992 34.0894 67.6451 34.1899 67.7791C34.2904 67.9083 34.4244 68.0159 34.5918 68.1021C34.7641 68.1882 34.9818 68.2312 35.245 68.2312C35.5799 68.2312 35.9196 68.1786 36.2641 68.0733C36.6134 67.9633 36.9532 67.8126 37.2833 67.6212C37.6183 67.4298 37.9412 67.2025 38.2522 66.9393C38.568 66.6762 38.8623 66.3915 39.135 66.0852C39.2882 65.9178 39.4102 65.834 39.5011 65.834C39.5537 65.834 39.592 65.8651 39.6159 65.9273C39.6398 65.9895 39.6518 66.0924 39.6518 66.236ZM53.5685 63.5947C53.5685 63.6809 53.5566 63.755 53.5326 63.8172C53.5087 63.8794 53.4752 63.9321 53.4322 63.9751C53.3891 64.0182 53.3389 64.0589 53.2814 64.0971C53.224 64.1306 53.1642 64.1641 53.102 64.1976C52.9441 64.2694 52.7551 64.3292 52.535 64.3771C52.3197 64.4249 52.0948 64.468 51.8603 64.5062C51.6307 64.5397 51.401 64.5708 51.1713 64.5996C50.9464 64.6235 50.7407 64.6498 50.5541 64.6785C50.2048 64.7311 49.8962 64.7742 49.6282 64.8077C49.3603 64.8364 49.1282 64.8651 48.932 64.8938C48.7358 64.9225 48.5732 64.9536 48.444 64.9871C48.3148 65.0206 48.2119 65.0685 48.1353 65.1307C48.0827 65.346 48.0301 65.5517 47.9774 65.7479C47.9248 65.9441 47.8722 66.1355 47.8195 66.3221C47.7669 66.5087 47.7167 66.6953 47.6688 66.8819C47.621 67.0685 47.5779 67.2599 47.5396 67.4561C47.5205 67.547 47.4942 67.6786 47.4607 67.8509C47.432 68.0231 47.4033 68.2001 47.3745 68.382C47.3458 68.5638 47.3219 68.7384 47.3028 68.9059C47.2836 69.0686 47.2741 69.1882 47.2741 69.2648C47.2741 69.3509 47.286 69.4418 47.31 69.5375C47.3387 69.6284 47.3769 69.7122 47.4248 69.7887C47.4774 69.8653 47.542 69.9275 47.6186 69.9753C47.6999 70.0232 47.7932 70.0471 47.8985 70.0471C48.0899 70.0471 48.2765 70.0184 48.4583 69.961C48.6449 69.9036 48.822 69.8318 48.9894 69.7457C49.1569 69.6595 49.3124 69.5662 49.456 69.4657C49.6043 69.3653 49.7359 69.272 49.8507 69.1858C49.9703 69.0997 50.0684 69.0279 50.145 68.9705C50.2263 68.9131 50.2861 68.8844 50.3244 68.8844C50.4871 68.8844 50.5684 68.992 50.5684 69.2074C50.5684 69.2648 50.523 69.3533 50.4321 69.4729C50.3412 69.5878 50.2167 69.7169 50.0588 69.8605C49.9009 70.004 49.7191 70.1524 49.5134 70.3055C49.3076 70.4586 49.0899 70.5974 48.8602 70.7218C48.6306 70.8462 48.3937 70.949 48.1497 71.0304C47.9105 71.1117 47.6808 71.1524 47.4607 71.1524C47.2071 71.1524 46.9918 71.1069 46.8147 71.016C46.6425 70.9299 46.5013 70.8151 46.3913 70.6715C46.2812 70.5328 46.2023 70.3725 46.1544 70.1906C46.1066 70.0088 46.0826 69.8246 46.0826 69.638C46.0826 69.4897 46.0946 69.3198 46.1185 69.1284C46.1472 68.9322 46.1807 68.7265 46.219 68.5112C46.2621 68.2911 46.3075 68.0686 46.3554 67.8437C46.408 67.6188 46.4583 67.4011 46.5061 67.1905C46.5539 66.98 46.5994 66.7862 46.6425 66.6092C46.6855 66.4274 46.7214 66.2719 46.7501 66.1427C46.7741 66.0278 46.7956 65.9202 46.8147 65.8197C46.8386 65.7144 46.8578 65.6211 46.8721 65.5398C46.8865 65.4584 46.8985 65.3914 46.908 65.3388C46.9176 65.2862 46.9224 65.2527 46.9224 65.2383C46.9224 65.1426 46.853 65.0733 46.7142 65.0302C46.5755 64.9823 46.3697 64.9704 46.097 64.9943C45.963 65.0087 45.7932 65.0206 45.5874 65.0302C45.3864 65.0398 45.1711 65.0493 44.9415 65.0589C44.7118 65.0637 44.4749 65.0733 44.2309 65.0876C43.9917 65.0972 43.7668 65.1091 43.5562 65.1235C43.3457 65.1331 43.1591 65.1474 42.9964 65.1666C42.8337 65.1857 42.7165 65.2096 42.6447 65.2383C42.5921 65.4536 42.5419 65.6522 42.494 65.834C42.4462 66.0111 42.3983 66.1833 42.3505 66.3508C42.3026 66.5183 42.2572 66.6857 42.2141 66.8532C42.171 67.0207 42.1304 67.2025 42.0921 67.3987C42.0729 67.4896 42.0466 67.626 42.0131 67.8078C41.9844 67.9896 41.9557 68.181 41.927 68.382C41.8983 68.5782 41.872 68.7648 41.8481 68.9418C41.8289 69.1141 41.8193 69.2385 41.8193 69.315C41.8193 69.5112 41.8504 69.6595 41.9127 69.76C41.9749 69.8557 42.0418 69.9323 42.1136 69.9897C42.1902 70.0519 42.2596 70.1093 42.3218 70.1619C42.384 70.2146 42.4151 70.2935 42.4151 70.3988C42.4151 70.4658 42.3816 70.5304 42.3146 70.5926C42.2524 70.6548 42.1758 70.7098 42.0849 70.7576C41.994 70.8055 41.8959 70.8414 41.7906 70.8653C41.6902 70.894 41.6016 70.9084 41.5251 70.9084C41.3863 70.9084 41.2619 70.8701 41.1519 70.7935C41.0418 70.717 40.9485 70.6165 40.8719 70.4921C40.7954 70.3725 40.7356 70.2337 40.6925 70.0758C40.6495 69.9179 40.6279 69.7552 40.6279 69.5878C40.6279 69.3676 40.6471 69.1332 40.6853 68.8844C40.7236 68.6308 40.7715 68.3724 40.8289 68.1092C40.8863 67.8461 40.9461 67.5781 41.0083 67.3054C41.0753 67.0279 41.1375 66.7527 41.1949 66.48C41.2188 66.3652 41.2428 66.2479 41.2667 66.1283C41.2954 66.0039 41.3193 65.8891 41.3385 65.7838C41.3624 65.6738 41.3815 65.5828 41.3959 65.5111C41.4102 65.4393 41.4174 65.3962 41.4174 65.3819C41.4174 65.3053 41.3887 65.2479 41.3313 65.2096C41.2787 65.1666 41.2141 65.145 41.1375 65.145C41.0801 65.145 40.994 65.1498 40.8791 65.1594C40.7643 65.1689 40.6423 65.1809 40.5131 65.1953C40.3887 65.2096 40.2691 65.2216 40.1542 65.2312C40.0394 65.2407 39.9556 65.2455 39.903 65.2455C39.7308 65.2455 39.5848 65.2359 39.4652 65.2168C39.3456 65.1929 39.2475 65.1522 39.1709 65.0948C39.0992 65.0374 39.0465 64.9584 39.013 64.8579C38.9748 64.7527 38.9556 64.6187 38.9556 64.456C38.9556 64.389 38.9867 64.3364 39.0489 64.2981C39.1111 64.2598 39.1853 64.2335 39.2714 64.2192C39.3623 64.2 39.458 64.1904 39.5585 64.1904C39.659 64.1857 39.7475 64.1833 39.8241 64.1833C39.8863 64.1833 39.9868 64.1785 40.1255 64.1689C40.2691 64.1546 40.4174 64.1402 40.5705 64.1259C40.7284 64.1115 40.8767 64.0995 41.0155 64.09C41.159 64.0756 41.2619 64.0684 41.3241 64.0684C41.3528 64.0684 41.3863 64.066 41.4246 64.0613C41.4629 64.0565 41.5012 64.0445 41.5394 64.0254C41.5825 64.0014 41.6208 63.9656 41.6543 63.9177C41.6878 63.8651 41.7165 63.7933 41.7404 63.7024C41.7739 63.5541 41.8146 63.3818 41.8624 63.1856C41.9103 62.9847 41.9581 62.7813 42.006 62.5756C42.0586 62.365 42.1088 62.1641 42.1567 61.9727C42.2045 61.7765 42.2452 61.609 42.2787 61.4703C42.3218 61.3363 42.3576 61.1927 42.3864 61.0396C42.4198 60.8865 42.4486 60.7334 42.4725 60.5803C42.5012 60.4272 42.5323 60.2788 42.5658 60.1353C42.5993 59.9917 42.6423 59.8602 42.695 59.7405C42.8002 59.4917 42.9701 59.3673 43.2046 59.3673C43.5586 59.3673 43.7357 59.5635 43.7357 59.9559C43.7357 60.1999 43.683 60.4798 43.5778 60.7956C43.4629 61.1545 43.3601 61.499 43.2692 61.8291C43.183 62.1593 43.1089 62.4583 43.0467 62.7263C42.9845 62.9895 42.9366 63.2167 42.9031 63.4081C42.8696 63.5947 42.8529 63.7287 42.8529 63.8101C42.8529 63.9871 42.9414 64.0756 43.1184 64.0756C43.2763 64.0756 43.494 64.0756 43.7716 64.0756C44.0491 64.0708 44.3481 64.0637 44.6687 64.0541C44.9941 64.0445 45.3242 64.0325 45.6592 64.0182C45.9941 63.9991 46.3027 63.9751 46.5851 63.9464C46.6951 63.9369 46.8099 63.901 46.9296 63.8388C47.0492 63.7718 47.1353 63.6713 47.1879 63.5373C47.2549 63.3555 47.3171 63.1713 47.3745 62.9847C47.4368 62.7981 47.4918 62.6043 47.5396 62.4033C47.597 62.1832 47.6449 61.9583 47.6832 61.7286C47.7215 61.499 47.7621 61.2717 47.8052 61.0468C47.8482 60.8219 47.8985 60.5994 47.9559 60.3793C48.0133 60.1592 48.0875 59.9463 48.1784 59.7405C48.2837 59.4917 48.4535 59.3673 48.688 59.3673C49.0421 59.3673 49.2191 59.5635 49.2191 59.9559C49.2191 60.1999 49.1665 60.4798 49.0612 60.7956C48.6066 62.2454 48.3794 63.1306 48.3794 63.4512C48.3794 63.6282 48.4679 63.7167 48.6449 63.7167C49.0803 63.7167 49.5206 63.7072 49.9655 63.688C50.4153 63.6641 50.8507 63.633 51.2718 63.5947C51.4919 63.5756 51.6857 63.5565 51.8532 63.5373C52.0254 63.5134 52.1833 63.4919 52.3269 63.4727C52.4704 63.4488 52.6068 63.4273 52.736 63.4081C52.8699 63.389 53.0111 63.3698 53.1594 63.3507C53.1881 63.3459 53.224 63.3435 53.2671 63.3435C53.3149 63.3387 53.3604 63.3435 53.4035 63.3579C53.4465 63.3722 53.4848 63.3986 53.5183 63.4368C53.5518 63.4703 53.5685 63.523 53.5685 63.5947ZM59.9491 65.5111C59.8917 65.6211 59.8056 65.7575 59.6907 65.9202C59.5759 66.0781 59.4467 66.2479 59.3032 66.4298C59.1596 66.6068 59.0089 66.7862 58.851 66.9681C58.6979 67.1451 58.5543 67.3054 58.4204 67.4489C57.9658 67.9466 57.5376 68.3772 57.1356 68.7408C56.7337 69.0997 56.3533 69.3964 55.9944 69.6308C55.6404 69.8653 55.3054 70.0375 54.9896 70.1476C54.6738 70.2624 54.3724 70.3198 54.0853 70.3198C53.8413 70.3198 53.6259 70.2696 53.4393 70.1691C53.2575 70.0686 53.102 69.9323 52.9728 69.76C52.8484 69.583 52.7551 69.3772 52.6929 69.1428C52.6307 68.9035 52.5996 68.6475 52.5996 68.3748C52.5996 68.1212 52.6068 67.8461 52.6211 67.5494C52.6355 67.248 52.6546 66.9537 52.6785 66.6666C52.7025 66.3747 52.7264 66.1068 52.7503 65.8628C52.779 65.6139 52.8077 65.4154 52.8364 65.267C52.8508 65.1857 52.8628 65.0948 52.8723 64.9943C52.8819 64.8938 52.8891 64.7957 52.8939 64.7C52.8987 64.5996 52.901 64.5039 52.901 64.4129C52.9058 64.322 52.9082 64.2479 52.9082 64.1904C52.9082 64.1378 52.9274 64.0541 52.9656 63.9392C53.0039 63.8244 53.0589 63.7096 53.1307 63.5947C53.2073 63.4751 53.2958 63.3722 53.3963 63.2861C53.5015 63.1952 53.6188 63.1497 53.748 63.1497C53.9489 63.1497 54.1044 63.1928 54.2145 63.2789C54.3245 63.3603 54.3796 63.5134 54.3796 63.7383C54.3796 63.7957 54.3628 63.8986 54.3293 64.0469C54.2958 64.1904 54.2552 64.3651 54.2073 64.5708C54.1595 64.7766 54.1044 65.0063 54.0422 65.2599C53.9848 65.5087 53.9322 65.7694 53.8843 66.0422C53.8365 66.3101 53.7958 66.5829 53.7623 66.8604C53.7288 67.1379 53.7121 67.4035 53.7121 67.6571C53.7121 67.8628 53.7288 68.0542 53.7623 68.2312C53.8006 68.4035 53.8484 68.5542 53.9059 68.6834C53.9681 68.8078 54.0398 68.9059 54.1212 68.9777C54.2025 69.0495 54.2886 69.0853 54.3796 69.0853C54.6092 69.0853 54.8365 69.0447 55.0614 68.9633C55.2911 68.8772 55.5423 68.7337 55.815 68.5327C56.0877 68.3317 56.3916 68.0662 56.7265 67.736C57.0662 67.4059 57.4634 66.9968 57.918 66.5087C58.0711 66.346 58.2122 66.1953 58.3414 66.0565C58.4706 65.913 58.5974 65.7718 58.7218 65.6331C58.8462 65.4943 58.9778 65.3484 59.1166 65.1953C59.2553 65.0374 59.4108 64.8579 59.5831 64.657C59.6309 64.5948 59.6931 64.5637 59.7697 64.5637C59.851 64.5637 59.9228 64.6019 59.985 64.6785C60.052 64.7551 60.0855 64.8651 60.0855 65.0087C60.0855 65.0756 60.0759 65.1522 60.0568 65.2383C60.0376 65.3245 60.0018 65.4154 59.9491 65.5111ZM56.0232 59.6329C56.0232 59.7477 55.9921 59.8961 55.9298 60.0779C55.8676 60.2597 55.7935 60.4367 55.7074 60.609C55.6212 60.7812 55.5303 60.9296 55.4346 61.054C55.3437 61.1736 55.2695 61.2334 55.2121 61.2334C55.1547 61.2334 55.0781 61.2262 54.9824 61.2119C54.8868 61.1927 54.7934 61.1664 54.7025 61.1329C54.6116 61.0947 54.5327 61.0492 54.4657 60.9966C54.3987 60.9439 54.3652 60.8817 54.3652 60.81C54.3652 60.7382 54.3772 60.6736 54.4011 60.6162C54.425 60.5588 54.4513 60.4989 54.48 60.4367C54.5088 60.3745 54.5351 60.3052 54.559 60.2286C54.5829 60.152 54.5949 60.0611 54.5949 59.9559C54.5949 59.7405 54.6499 59.5539 54.76 59.396C54.87 59.2381 55.0207 59.1592 55.2121 59.1592C55.26 59.1592 55.3294 59.1616 55.4203 59.1664C55.5112 59.1711 55.5997 59.1879 55.6858 59.2166C55.7767 59.2453 55.8557 59.2932 55.9227 59.3601C55.9897 59.4224 56.0232 59.5133 56.0232 59.6329ZM68.7915 68.9131C68.7915 69.0136 68.7341 69.1117 68.6193 69.2074C68.5092 69.2983 68.3752 69.3772 68.2173 69.4442C68.0594 69.5112 67.8967 69.5662 67.7293 69.6093C67.5666 69.6476 67.4326 69.6667 67.3273 69.6667C66.8967 69.6667 66.4948 69.6212 66.1216 69.5303C65.7531 69.4394 65.3775 69.315 64.9947 69.1571C64.6789 69.0279 64.3775 68.8796 64.0904 68.7121C63.8033 68.5447 63.5162 68.37 63.2291 68.1882C62.9468 68.0064 62.6597 67.8221 62.3679 67.6355C62.076 67.4441 61.7674 67.2575 61.442 67.0757C61.4324 67.0853 61.4085 67.1092 61.3702 67.1475C61.3367 67.181 61.296 67.2193 61.2482 67.2623C61.2051 67.3054 61.1573 67.3508 61.1047 67.3987C61.0568 67.4417 61.0161 67.4776 60.9826 67.5063C60.8582 67.6164 60.7601 67.7121 60.6884 67.7934C60.6214 67.8748 60.564 67.9537 60.5161 68.0303C60.4731 68.1021 60.4372 68.1738 60.4085 68.2456C60.3798 68.3174 60.3463 68.3963 60.308 68.4825C60.3271 68.5734 60.3223 68.6834 60.2936 68.8126C60.2697 68.937 60.2577 69.0518 60.2577 69.1571C60.2577 69.4681 60.1908 69.7026 60.0568 69.8605C59.9276 70.0184 59.7218 70.0973 59.4395 70.0973C59.2673 70.0973 59.1572 70.0543 59.1094 69.9681C59.0663 69.8868 59.0448 69.7528 59.0448 69.5662C59.0448 69.5088 59.0544 69.3868 59.0735 69.2002C59.0974 69.0088 59.1261 68.7767 59.1596 68.504C59.1931 68.2265 59.2314 67.9202 59.2745 67.5853C59.3223 67.2456 59.3702 66.9011 59.418 66.5518C59.4706 66.1977 59.5209 65.8484 59.5687 65.5039C59.6166 65.1546 59.662 64.834 59.7051 64.5421C59.7482 64.2455 59.784 63.9895 59.8127 63.7742C59.8462 63.5588 59.8702 63.4033 59.8845 63.3076C59.8941 63.2215 59.9061 63.0923 59.9204 62.9201C59.9348 62.7478 59.9491 62.554 59.9635 62.3387C59.9826 62.1234 60.0017 61.8985 60.0209 61.6641C60.04 61.4248 60.0568 61.1999 60.0711 60.9894C60.0903 60.7789 60.1046 60.5922 60.1142 60.4296C60.1285 60.2669 60.1381 60.152 60.1429 60.0851L60.2003 59.3817C60.2051 59.3003 60.2386 59.2238 60.3008 59.152C60.363 59.0802 60.4372 59.018 60.5233 58.9654C60.6142 58.9128 60.7099 58.8721 60.8104 58.8434C60.9109 58.8099 61.0042 58.7931 61.0903 58.7931C61.1716 58.7931 61.2434 58.8099 61.3056 58.8434C61.3678 58.8769 61.4181 58.9176 61.4563 58.9654C61.4994 59.0132 61.5305 59.0659 61.5496 59.1233C61.5688 59.1807 61.5784 59.231 61.5784 59.274C61.5784 59.341 61.5664 59.463 61.5425 59.6401C61.5185 59.8171 61.4851 60.03 61.442 60.2788C61.3989 60.5277 61.3511 60.8004 61.2984 61.097C61.2458 61.3937 61.1908 61.6952 61.1334 62.0014C61.0807 62.3028 61.0281 62.5995 60.9755 62.8914C60.9228 63.1785 60.875 63.4392 60.8319 63.6737C60.7889 63.9034 60.753 64.0948 60.7243 64.2479C60.6956 64.401 60.6788 64.4943 60.674 64.5278C60.6022 65.1067 60.54 65.5996 60.4874 66.0063C60.4348 66.413 60.3893 66.7336 60.351 66.9681C60.3989 66.9154 60.485 66.8197 60.6094 66.681C60.7386 66.5374 60.8869 66.3747 61.0544 66.1929C61.2219 66.0063 61.3989 65.8101 61.5855 65.6044C61.7721 65.3986 61.9468 65.2048 62.1095 65.023C62.2722 64.8364 62.4133 64.6761 62.5329 64.5421C62.6573 64.4034 62.7387 64.3101 62.777 64.2622C62.9731 64.0086 63.1741 63.7526 63.3798 63.4943C63.5904 63.2311 63.7985 62.9942 64.0043 62.7837C64.2148 62.5732 64.4229 62.4033 64.6287 62.2741C64.8344 62.1401 65.0354 62.0732 65.2316 62.0732C65.5378 62.0732 65.6909 62.1569 65.6909 62.3244C65.6909 62.4009 65.6646 62.4942 65.612 62.6043C65.5641 62.7095 65.5043 62.8172 65.4325 62.9273C65.3608 63.0373 65.2842 63.145 65.2029 63.2502C65.1263 63.3507 65.0569 63.4344 64.9947 63.5014C64.9182 63.5876 64.8201 63.6904 64.7005 63.8101C64.5856 63.9249 64.4588 64.0493 64.3201 64.1833C64.1861 64.3172 64.0449 64.456 63.8966 64.5996C63.7483 64.7383 63.6047 64.8723 63.466 65.0015C63.332 65.1307 63.2076 65.2503 63.0928 65.3603C62.9827 65.4656 62.8942 65.5517 62.8272 65.6187C62.7698 65.6761 62.7148 65.7288 62.6621 65.7766C62.6095 65.8245 62.5569 65.8723 62.5042 65.9202C62.4564 65.968 62.4085 66.023 62.3607 66.0852C62.3128 66.1427 62.2602 66.212 62.2028 66.2934C62.6669 66.5757 63.1334 66.8508 63.6023 67.1188C64.076 67.3819 64.545 67.6212 65.0091 67.8365C65.478 68.0518 65.9397 68.2384 66.3943 68.3963C66.8536 68.5494 67.301 68.6595 67.7364 68.7265C67.9087 68.7552 68.0594 68.7695 68.1886 68.7695C68.3226 68.7648 68.4326 68.7648 68.5188 68.7695C68.6097 68.7695 68.6767 68.7791 68.7197 68.7983C68.7676 68.8126 68.7915 68.8509 68.7915 68.9131Z" fill="white"/>
<path d="M93.6866 78.1268L63.7279 79.0365L63.7279 77.2171L93.6866 78.1268Z" fill="url(#paint0_linear)"/>
<path d="M-6 78.1268L23.9586 79.0365L23.9586 77.2171L-6 78.1268Z" fill="url(#paint1_linear)"/>
<path d="M28.1887 74.8976C28.0251 74.8976 27.8498 74.9028 27.6628 74.9132C27.2628 74.934 26.9641 74.9846 26.7667 75.0651C26.5719 75.1456 26.4109 75.2846 26.2836 75.482C26.1668 75.6638 26.0771 75.9105 26.0148 76.2222L25.9252 76.2144L25.9953 74.7768H31.2664L31.3366 76.2144L31.247 76.2222C31.1768 75.8612 31.0665 75.5885 30.9158 75.4041C30.7678 75.2171 30.5509 75.0833 30.2652 75.0028C30.0237 74.9327 29.6146 74.8976 29.038 74.8976V78.8714C29.038 79.1363 29.0523 79.3337 29.0809 79.4636C29.112 79.5908 29.1679 79.696 29.2484 79.7791C29.3211 79.8545 29.4029 79.909 29.4938 79.9428C29.5873 79.9765 29.7081 79.9973 29.8561 80.0051V80.0947H27.3667V80.0051C27.5173 79.9973 27.6381 79.9765 27.729 79.9428C27.8225 79.909 27.9056 79.8545 27.9783 79.7791C28.0588 79.696 28.1134 79.5908 28.142 79.4636C28.1731 79.3363 28.1887 79.1389 28.1887 78.8714V74.8976ZM32.5871 77.3247C32.6806 77.1611 32.7858 77.0377 32.9027 76.9546C33.1183 76.8014 33.3637 76.7248 33.639 76.7248C33.8078 76.7248 33.9364 76.7624 34.0247 76.8378C34.1052 76.9053 34.1455 76.9884 34.1455 77.0871C34.1455 77.1598 34.1208 77.2195 34.0715 77.2663C34.0247 77.313 33.9637 77.3364 33.8884 77.3364C33.8001 77.3364 33.7234 77.3001 33.6585 77.2273L33.5377 77.0949C33.4416 76.9936 33.3287 76.9429 33.1988 76.9429C33.0222 76.9429 32.8845 77.0572 32.7858 77.2858C32.6871 77.5143 32.6378 77.8325 32.6378 78.2403V78.9688L32.6417 79.2649C32.6417 79.4415 32.6521 79.5714 32.6729 79.6545C32.6936 79.735 32.7339 79.8025 32.7936 79.857C32.8663 79.9272 33.0001 79.9804 33.1949 80.0168V80.0947H31.4768V80.0168C31.6327 79.996 31.7443 79.9674 31.8119 79.9311C31.8794 79.8921 31.9339 79.8272 31.9755 79.7363C32.0041 79.6765 32.0235 79.5869 32.0339 79.4675C32.0469 79.3454 32.0534 79.1701 32.0534 78.9415V77.9792C32.0534 77.7117 32.0469 77.5247 32.0339 77.4182C32.0209 77.3092 31.9924 77.2208 31.9482 77.1533C31.9041 77.0806 31.8508 77.0286 31.7885 76.9975C31.7262 76.9637 31.6366 76.9429 31.5197 76.9351V76.8572L32.5209 76.717C32.5651 76.9533 32.5871 77.1559 32.5871 77.3247ZM37.5816 79.7168L37.6479 79.7558C37.5544 80.0285 37.3401 80.1648 37.0051 80.1648C36.8207 80.1648 36.6674 80.1194 36.5453 80.0285C36.4648 79.9687 36.3817 79.8648 36.296 79.7168C36.122 79.8726 35.9908 79.9752 35.9025 80.0246C35.7337 80.1181 35.5376 80.1648 35.3143 80.1648C35.0286 80.1648 34.8013 80.096 34.6325 79.9583C34.4663 79.8207 34.3831 79.635 34.3831 79.4012C34.3831 79.1857 34.452 79.0052 34.5896 78.8597C34.6675 78.7792 34.7571 78.7156 34.8584 78.6688C34.9597 78.6195 35.1065 78.5701 35.2987 78.5208C35.5246 78.4636 35.6909 78.4156 35.7973 78.3766C35.9064 78.3377 35.9973 78.2909 36.0701 78.2364C36.1532 78.1766 36.2103 78.1065 36.2415 78.026C36.2726 77.9455 36.2882 77.8338 36.2882 77.6909C36.2882 77.3871 36.2311 77.165 36.1168 77.0248C36.0649 76.9598 35.9973 76.9079 35.9142 76.8689C35.8337 76.83 35.7493 76.8105 35.661 76.8105C35.5545 76.8105 35.4597 76.8378 35.3766 76.8923C35.2935 76.9468 35.2311 77.0222 35.1896 77.1183L35.0922 77.3442C35.0402 77.4663 34.9467 77.5273 34.8117 77.5273C34.7234 77.5273 34.6494 77.4987 34.5896 77.4416C34.5299 77.3819 34.5 77.3079 34.5 77.2195C34.5 77.0871 34.5935 76.9754 34.7805 76.8845C34.8818 76.8378 35.0065 76.8001 35.1545 76.7715C35.3052 76.7404 35.4519 76.7248 35.5948 76.7248C35.7558 76.7248 35.9233 76.7455 36.0973 76.7871C36.2713 76.8287 36.4168 76.8819 36.5337 76.9468C36.7025 77.0429 36.8077 77.1676 36.8492 77.3208C36.87 77.3988 36.8804 77.5299 36.8804 77.7143V79.1558C36.8804 79.3999 36.8908 79.5662 36.9116 79.6545C36.9557 79.8389 37.0622 79.9311 37.231 79.9311C37.3115 79.9311 37.3739 79.9168 37.418 79.8882C37.4648 79.8596 37.5193 79.8025 37.5816 79.7168ZM36.296 78.1818C36.1558 78.2987 36.0012 78.4013 35.8324 78.4896C35.6428 78.5909 35.5116 78.6675 35.4389 78.7195C35.3662 78.7714 35.3 78.8337 35.2402 78.9065C35.1182 79.0571 35.0571 79.2324 35.0571 79.4324C35.0571 79.6038 35.1039 79.7454 35.1974 79.857C35.2935 79.9687 35.4142 80.0246 35.5597 80.0246C35.687 80.0246 35.8064 79.9856 35.9181 79.9077C36.0324 79.8272 36.1181 79.7207 36.1752 79.5882C36.2558 79.4142 36.296 79.1623 36.296 78.8324V78.1818ZM37.4959 76.7832H39.0036V76.865C38.8894 76.8884 38.8114 76.9144 38.7699 76.9429C38.6868 76.9949 38.6452 77.078 38.6452 77.1923C38.6452 77.2624 38.6582 77.3442 38.6842 77.4377C38.7101 77.5312 38.7582 77.6676 38.8283 77.8468L39.4595 79.448L40.0945 77.7806C40.188 77.5338 40.2347 77.3507 40.2347 77.2312C40.2347 77.1014 40.1945 77.0066 40.114 76.9468C40.0724 76.9157 39.9958 76.8884 39.8841 76.865V76.7832H40.9594V76.865C40.8139 76.9014 40.697 76.9663 40.6087 77.0598C40.4971 77.1767 40.3685 77.4221 40.223 77.7961L39.3231 80.0947H39.1127L38.1349 77.6793C37.9842 77.3079 37.8764 77.0832 37.8115 77.0053C37.7751 76.9637 37.7349 76.9338 37.6907 76.9157C37.6466 76.8949 37.5816 76.878 37.4959 76.865V76.7832ZM41.7814 77.9753C41.771 78.1026 41.7658 78.1948 41.7658 78.252C41.7658 78.4779 41.7983 78.6987 41.8632 78.9142C41.9307 79.1298 42.0216 79.309 42.1359 79.4519C42.2528 79.5973 42.3969 79.7116 42.5684 79.7947C42.7424 79.8778 42.9242 79.9194 43.1138 79.9194C43.254 79.9194 43.3865 79.896 43.5112 79.8493C43.6384 79.8025 43.7436 79.7376 43.8267 79.6545C43.9202 79.5636 44.0007 79.4181 44.0683 79.2181L44.1462 79.2454C44.0787 79.5493 43.9332 79.7791 43.7098 79.935C43.4891 80.0882 43.1943 80.1648 42.8255 80.1648C42.506 80.1648 42.232 80.1142 42.0035 80.0129C41.7749 79.9116 41.5814 79.7558 41.423 79.5454C41.2022 79.2519 41.0918 78.8909 41.0918 78.4623C41.0918 77.8779 41.3009 77.4195 41.7191 77.0871C42.0229 76.8455 42.3697 76.7248 42.7593 76.7248C42.967 76.7248 43.1592 76.7624 43.3358 76.8378C43.5125 76.9105 43.6618 77.017 43.7839 77.1572C43.9735 77.3754 44.0683 77.6481 44.0683 77.9753H41.7814ZM43.4878 77.8234C43.4696 77.5637 43.4216 77.3637 43.3436 77.2234C43.2735 77.0962 43.18 76.9962 43.0631 76.9235C42.9463 76.8481 42.8216 76.8105 42.6891 76.8105C42.4658 76.8105 42.2697 76.9066 42.1009 77.0988C41.9346 77.291 41.8359 77.5325 41.8048 77.8234H43.4878ZM44.602 74.7613L45.7201 74.621V78.9688L45.724 79.2649C45.724 79.4415 45.7344 79.5714 45.7552 79.6545C45.776 79.735 45.8162 79.8025 45.876 79.857C45.9487 79.9272 46.0824 79.9804 46.2772 80.0168V80.0947H44.5591V80.0168C44.715 79.996 44.8267 79.9674 44.8942 79.9311C44.9617 79.8921 45.0163 79.8272 45.0578 79.7363C45.0864 79.6765 45.1059 79.5869 45.1163 79.4675C45.1292 79.3454 45.1357 79.1701 45.1357 78.9415V75.8833C45.1357 75.6183 45.1292 75.4313 45.1163 75.3223C45.1033 75.2132 45.0747 75.1249 45.0305 75.0573C44.9864 74.9846 44.9332 74.9327 44.8708 74.9015C44.8085 74.8703 44.7189 74.8509 44.602 74.8431V74.7613ZM49.3082 77.9753C49.2978 78.1026 49.2926 78.1948 49.2926 78.252C49.2926 78.4779 49.3251 78.6987 49.39 78.9142C49.4576 79.1298 49.5485 79.309 49.6627 79.4519C49.7796 79.5973 49.9238 79.7116 50.0952 79.7947C50.2692 79.8778 50.451 79.9194 50.6406 79.9194C50.7808 79.9194 50.9133 79.896 51.038 79.8493C51.1652 79.8025 51.2704 79.7376 51.3535 79.6545C51.447 79.5636 51.5276 79.4181 51.5951 79.2181L51.673 79.2454C51.6055 79.5493 51.46 79.7791 51.2367 79.935C51.0159 80.0882 50.7211 80.1648 50.3523 80.1648C50.0328 80.1648 49.7588 80.1142 49.5303 80.0129C49.3017 79.9116 49.1082 79.7558 48.9498 79.5454C48.729 79.2519 48.6186 78.8909 48.6186 78.4623C48.6186 77.8779 48.8277 77.4195 49.2459 77.0871C49.5498 76.8455 49.8965 76.7248 50.2861 76.7248C50.4939 76.7248 50.686 76.7624 50.8627 76.8378C51.0393 76.9105 51.1886 77.017 51.3107 77.1572C51.5003 77.3754 51.5951 77.6481 51.5951 77.9753H49.3082ZM51.0146 77.8234C50.9964 77.5637 50.9484 77.3637 50.8705 77.2234C50.8003 77.0962 50.7068 76.9962 50.59 76.9235C50.4731 76.8481 50.3484 76.8105 50.2159 76.8105C49.9926 76.8105 49.7965 76.9066 49.6277 77.0988C49.4614 77.291 49.3628 77.5325 49.3316 77.8234H51.0146ZM55.4169 79.7168L55.4832 79.7558C55.3897 80.0285 55.1754 80.1648 54.8403 80.1648C54.6559 80.1648 54.5027 80.1194 54.3806 80.0285C54.3001 79.9687 54.217 79.8648 54.1313 79.7168C53.9573 79.8726 53.8261 79.9752 53.7378 80.0246C53.569 80.1181 53.3729 80.1648 53.1495 80.1648C52.8638 80.1648 52.6366 80.096 52.4678 79.9583C52.3015 79.8207 52.2184 79.635 52.2184 79.4012C52.2184 79.1857 52.2873 79.0052 52.4249 78.8597C52.5028 78.7792 52.5924 78.7156 52.6937 78.6688C52.795 78.6195 52.9418 78.5701 53.134 78.5208C53.3599 78.4636 53.5261 78.4156 53.6326 78.3766C53.7417 78.3377 53.8326 78.2909 53.9053 78.2364C53.9884 78.1766 54.0456 78.1065 54.0768 78.026C54.1079 77.9455 54.1235 77.8338 54.1235 77.6909C54.1235 77.3871 54.0664 77.165 53.9521 77.0248C53.9001 76.9598 53.8326 76.9079 53.7495 76.8689C53.669 76.83 53.5846 76.8105 53.4963 76.8105C53.3898 76.8105 53.295 76.8378 53.2119 76.8923C53.1288 76.9468 53.0664 77.0222 53.0249 77.1183L52.9275 77.3442C52.8755 77.4663 52.782 77.5273 52.647 77.5273C52.5587 77.5273 52.4846 77.4987 52.4249 77.4416C52.3652 77.3819 52.3353 77.3079 52.3353 77.2195C52.3353 77.0871 52.4288 76.9754 52.6158 76.8845C52.7171 76.8378 52.8418 76.8001 52.9898 76.7715C53.1404 76.7404 53.2872 76.7248 53.43 76.7248C53.5911 76.7248 53.7586 76.7455 53.9326 76.7871C54.1066 76.8287 54.2521 76.8819 54.3689 76.9468C54.5378 77.0429 54.643 77.1676 54.6845 77.3208C54.7053 77.3988 54.7157 77.5299 54.7157 77.7143V79.1558C54.7157 79.3999 54.7261 79.5662 54.7468 79.6545C54.791 79.8389 54.8975 79.9311 55.0663 79.9311C55.1468 79.9311 55.2092 79.9168 55.2533 79.8882C55.3001 79.8596 55.3546 79.8025 55.4169 79.7168ZM54.1313 78.1818C53.991 78.2987 53.8365 78.4013 53.6677 78.4896C53.4781 78.5909 53.3469 78.6675 53.2742 78.7195C53.2015 78.7714 53.1353 78.8337 53.0755 78.9065C52.9534 79.0571 52.8924 79.2324 52.8924 79.4324C52.8924 79.6038 52.9392 79.7454 53.0327 79.857C53.1288 79.9687 53.2495 80.0246 53.395 80.0246C53.5222 80.0246 53.6417 79.9856 53.7534 79.9077C53.8677 79.8272 53.9534 79.7207 54.0105 79.5882C54.091 79.4142 54.1313 79.1623 54.1313 78.8324V78.1818ZM55.7598 80.0947V78.9922H55.8221C55.8948 79.2623 55.9857 79.4779 56.0948 79.6389C56.2948 79.9324 56.5286 80.0791 56.7961 80.0791C56.9597 80.0791 57.1012 80.0298 57.2207 79.9311C57.3506 79.822 57.4155 79.6674 57.4155 79.4675C57.4155 79.3038 57.3688 79.161 57.2753 79.0389C57.2233 78.974 57.1571 78.9142 57.0766 78.8597C56.9987 78.8052 56.8662 78.7285 56.6792 78.6298C56.3519 78.4558 56.1338 78.3104 56.0247 78.1935C55.8689 78.0273 55.7909 77.8351 55.7909 77.6169C55.7909 77.3832 55.8689 77.1819 56.0247 77.0131C56.2039 76.8209 56.4415 76.7248 56.7376 76.7248C56.8701 76.7248 56.9935 76.7481 57.1077 76.7949L57.2402 76.8533C57.2818 76.8689 57.3181 76.8767 57.3493 76.8767C57.3986 76.8767 57.4454 76.8378 57.4895 76.7598H57.5675L57.6103 77.6442H57.5285C57.4999 77.5195 57.4688 77.4195 57.435 77.3442C57.4038 77.2689 57.3584 77.1962 57.2986 77.126C57.2181 77.0273 57.1246 76.9507 57.0181 76.8962C56.9116 76.839 56.8065 76.8105 56.7026 76.8105C56.5571 76.8105 56.4325 76.8637 56.3286 76.9702C56.2273 77.0741 56.1766 77.2027 56.1766 77.3559C56.1766 77.4832 56.2221 77.5987 56.313 77.7026C56.4065 77.8039 56.5493 77.8974 56.7415 77.9831L57.1545 78.1701C57.4012 78.2818 57.5856 78.4208 57.7077 78.587C57.8298 78.7532 57.8908 78.9493 57.8908 79.1753C57.8908 79.448 57.8025 79.6739 57.6259 79.8532C57.4233 80.0609 57.1636 80.1648 56.8467 80.1648C56.6753 80.1648 56.5013 80.1311 56.3247 80.0635C56.2104 80.0194 56.1416 79.9947 56.1182 79.9895C56.0948 79.9817 56.0649 79.9778 56.0286 79.9778C55.9377 79.9778 55.8689 80.0168 55.8221 80.0947H55.7598ZM58.1947 76.7832H59.7024V76.865C59.5959 76.8806 59.5193 76.9014 59.4725 76.9274C59.3712 76.9845 59.3206 77.0728 59.3206 77.1923C59.3206 77.2962 59.3738 77.4819 59.4803 77.7494L60.1348 79.4207L60.7036 78.0143C60.8439 77.6637 60.914 77.4156 60.914 77.2702C60.914 77.1533 60.8815 77.0611 60.8166 76.9936C60.7517 76.9235 60.6569 76.8806 60.5322 76.865V76.7832H61.6464V76.865C61.5347 76.8962 61.4516 76.9287 61.3971 76.9624C61.3451 76.9962 61.2945 77.0494 61.2451 77.1221C61.1698 77.2364 61.0504 77.4923 60.8867 77.8896L59.7569 80.6323C59.6219 80.9596 59.5128 81.1726 59.4297 81.2712C59.2894 81.4349 59.1115 81.5167 58.8959 81.5167C58.7583 81.5167 58.6466 81.4894 58.5609 81.4349C58.4778 81.3829 58.4362 81.3141 58.4362 81.2284C58.4362 81.1609 58.4609 81.1063 58.5102 81.0648C58.5596 81.0258 58.6245 81.0063 58.705 81.0063C58.7726 81.0063 58.8505 81.0245 58.9388 81.0609C59.0245 81.0946 59.079 81.1154 59.1024 81.1232C59.1284 81.131 59.1583 81.1349 59.192 81.1349C59.3531 81.1349 59.4842 81.0141 59.5855 80.7726L59.7063 80.4765C59.7582 80.3518 59.7842 80.2557 59.7842 80.1882C59.7842 80.0921 59.7349 79.9246 59.6362 79.6856L58.8258 77.7416L58.7089 77.4611C58.6388 77.2949 58.5843 77.1767 58.5453 77.1066C58.5064 77.0364 58.4674 76.9858 58.4284 76.9546C58.3635 76.9053 58.2856 76.8754 58.1947 76.865V76.7832Z" fill="white"/>
<defs>
<linearGradient id="paint0_linear" x1="93.6866" y1="78.1268" x2="53.7417" y2="78.1268" gradientUnits="userSpaceOnUse">
<stop stop-opacity="0.0781"/>
<stop offset="1" stop-color="white"/>
</linearGradient>
<linearGradient id="paint1_linear" x1="-6" y1="78.1268" x2="33.9449" y2="78.1268" gradientUnits="userSpaceOnUse">
<stop stop-opacity="0.0781"/>
<stop offset="1" stop-color="white"/>
</linearGradient>
</defs>
</svg>
